Coordinates
version=1
nRows=16
nColumns=42
inDegrees=yes

Units are S.I. units (second, meters, Newtons, ...)
If the header above contains a line with 'inDegrees', this indicates whether rotational values are in degrees (yes) or radians (no).

endheader
time	pelvis_tilt	pelvis_list	pelvis_rotation	pelvis_tx	pelvis_ty	pelvis_tz	hip_flexion_r	hip_adduction_r	hip_rotation_r	knee_angle_r	knee_adduction_r	knee_angle_r_beta	ankle_angle_r	subtalar_angle_r	mtp_angle_r	hip_flexion_l	hip_adduction_l	hip_rotation_l	knee_angle_l	knee_adduction_l	knee_angle_l_beta	ankle_angle_l	subtalar_angle_l	mtp_angle_l	lumbar_extension	lumbar_bending	lumbar_rotation	arm_flex_r	arm_add_r	arm_rot_r	elbow_flex_r	pro_sup_r	wrist_flex_r	wrist_dev_r	arm_flex_l	arm_add_l	arm_rot_l	elbow_flex_l	pro_sup_l	wrist_flex_l	wrist_dev_l
      0.38000000	      6.90906265	      0.00560264	      0.35316146	     -1.39497263	      0.92270904	      0.24316096	     21.05874558	      0.21752018	     -9.17478351	     17.83457097	      1.43079420	      0.31127198	      7.57563408	      4.09296201	     -8.07086828	    -29.06122061	     -3.00608857	    -14.32999562	     19.93074543	      1.63519120	      0.34785713	     14.28114796	     26.57321099	     -8.07086828	    -17.26818634	      3.62986843	     -6.61873983	     -9.35089649	    -10.67634817	      9.18870468	     33.28078713	     90.00000001	      0.00000000	      0.00000000	      5.34198984	    -18.12210937	     -3.62334318	     53.94113285	     90.00000001	      0.00000000	      0.00000000
      0.39000000	      7.29820779	     -0.51635031	      0.09873483	     -1.37791959	      0.92487791	      0.24506429	     20.44739639	      0.93606555	     -8.83580631	     19.65910935	      1.39879738	      0.34311619	      7.65065649	      3.56750243	     -8.06199571	    -28.77972757	     -3.73616091	    -14.27906564	     22.91803715	      1.32416472	      0.39999521	     11.99041229	     25.18512571	     -8.06199571	    -17.63952707	      4.16940866	     -6.27002106	     -8.96516623	    -10.86514336	      9.19102581	     33.15182883	     90.00000001	      0.00000000	      0.00000000	      4.67720317	    -17.73321540	     -3.75835422	     53.57279665	     90.00000001	      0.00000000	      0.00000000
      0.40000000	      7.76568696	     -0.93294021	     -0.19747834	     -1.36114218	      0.92763900	      0.24703350	     19.53994903	      1.52481136	     -8.30076214	     21.10562043	      1.50512470	      0.36836257	      7.95298676	      3.23342806	     -8.05590239	    -28.34477949	     -4.36508403	    -14.14926264	     26.18347692	      1.03421840	      0.45698788	      9.84350112	     23.71430070	     -8.05590239	    -18.13752837	      4.55547566	     -5.88462262	     -8.53626588	    -11.05189130	      9.18779818	     33.07330446	     90.00000001	      0.00000000	      0.00000000	      4.05080809	    -17.37652597	     -3.81918005	     53.10463392	     90.00000001	      0.00000000	      0.00000000
      0.41000000	      8.00703938	     -1.44314512	     -0.50267536	     -1.34460454	      0.93053485	      0.24892265	     18.66935439	      2.23688941	     -7.72745442	     22.11653137	      1.61190827	      0.38600629	      8.31953743	      2.85143325	     -8.04688006	    -27.35547952	     -5.05930552	    -14.27442487	     29.82922555	      0.49966375	      0.52061820	      7.62266987	     21.54210070	     -8.04688006	    -18.41815189	      5.05539516	     -5.47158899	     -8.05943330	    -11.26892488	      9.19163086	     33.00618099	     90.00000001	      0.00000000	      0.00000000	      3.34363050	    -16.95269752	     -3.77374741	     52.56783853	     90.00000001	      0.00000000	      0.00000000
      0.42000000	      8.20056498	     -1.83743394	     -0.82202189	     -1.32850843	      0.93368706	      0.25093064	     17.66547885	      2.80556363	     -6.98799214	     22.75591520	      1.85072605	      0.39716564	      8.83121158	      2.60332250	     -8.03804838	    -26.08036784	     -5.68377213	    -14.32239616	     33.67750438	     -0.00843455	      0.58778334	      5.86078996	     19.45829189	     -8.03804838	    -18.69669196	      5.38075793	     -5.02464719	     -7.58161017	    -11.44574982	      9.19384774	     33.00286417	     90.00000001	      0.00000000	      0.00000000	      2.71803452	    -16.57964303	     -3.65316974	     51.92580146	     90.00000001	      0.00000000	      0.00000000
      0.43000000	      8.10667517	     -2.20507527	     -1.24076139	     -1.31292833	      0.93668019	      0.25310624	     16.88036638	      3.39624283	     -6.20677196	     23.14040492	      2.05684553	      0.40387626	      9.26759332	      2.26300867	     -8.02034361	    -24.29355760	     -6.29888589	    -14.43818487	     37.66928715	     -0.49928728	      0.65745309	      4.53647667	     17.20510553	     -8.02034361	    -18.70677289	      5.63714509	     -4.47261628	     -7.06962506	    -11.61903810	      9.17942165	     33.01086273	     90.00000001	      0.00000000	      0.00000000	      2.11360929	    -16.20574881	     -3.43818205	     51.18239970	     90.00000001	      0.00000000	      0.00000000
      0.44000000	      8.26127484	     -2.42652553	     -1.46643960	     -1.29747976	      0.94028267	      0.25481451	     15.55879082	      3.68553685	     -5.62342587	     23.04401057	      2.38693217	      0.40219386	     10.10607790	      2.44540449	     -8.00945972	    -22.63343481	     -6.75707192	    -14.65888534	     41.43563472	     -1.32124459	      0.72318825	      3.54141599	     15.31759322	     -8.00945972	    -18.97849758	      5.77446720	     -4.09478745	     -6.58876100	    -11.80980817	      9.16015703	     33.16989695	     90.00000001	      0.00000000	      0.00000000	      1.56469741	    -15.87059540	     -3.11848867	     50.40655363	     90.00000001	      0.00000000	      0.00000000
      0.45000000	      8.11789044	     -2.71882444	     -1.83833585	     -1.28241623	      0.94359534	      0.25697106	     14.50754916	      4.18300484	     -5.08955051	     22.75213167	      2.49938067	      0.39709961	     10.73513988	      2.63749816	     -7.99614698	    -20.57711276	     -7.34836382	    -14.96596795	     45.11897088	     -1.96923827	      0.78747460	      2.89188839	     13.17296631	     -7.99614698	    -18.95514050	      5.91447199	     -3.54071851	     -6.10136842	    -11.98942376	      9.16961582	     33.34659724	     90.00000001	      0.00000000	      0.00000000	      1.02424870	    -15.57188482	     -2.66696101	     49.54204202	     90.00000001	      0.00000000	      0.00000000
      0.46000000	      8.54126642	     -2.59360957	     -2.24308092	     -1.26756487	      0.94787917	      0.25894473	     12.80814783	      4.12811567	     -4.89031137	     22.44774795	      2.58403337	      0.39178711	     11.25858643	      2.98666873	     -7.98995865	    -19.22927181	     -7.33940637	    -15.04787359	     48.04654256	     -2.56357865	      0.83857036	      2.92031894	     12.14820372	     -7.98995865	    -19.56849874	      5.54503242	     -2.96736756	     -5.59737126	    -12.11539746	      9.16911091	     33.60455046	     90.00000001	      0.00000000	      0.00000000	      0.57534816	    -15.28814925	     -2.40594814	     48.89458095	     90.00000001	      0.00000000	      0.00000000
      0.47000000	      8.26501585	     -2.85007795	     -2.31655983	     -1.25269302	      0.95128112	      0.26038838	     11.48507159	      4.42246335	     -4.45105673	     21.27981850	      2.89396171	      0.37140290	     12.21925320	      3.73301070	     -7.98017691	    -16.80406491	     -7.89340059	    -15.75544975	     51.18702662	     -3.83926804	      0.89338215	      2.94990425	      9.77003228	     -7.98017691	    -19.32493333	      5.75118580	     -2.67487845	     -5.18529646	    -12.35307862	      9.21526911	     33.93087597	     90.00000001	      0.00000000	      0.00000000	      0.05291563	    -15.00654409	     -1.60906273	     47.78343757	     90.00000001	      0.00000000	      0.00000000
      0.48000000	      8.20620476	     -2.85560168	     -2.60472718	     -1.23811360	      0.95500043	      0.26221835	     10.05177108	      4.53543755	     -4.21433735	     20.35035757	      2.91839535	      0.35518074	     12.75178055	      4.30506089	     -7.97062130	    -14.73940233	     -8.12004361	    -16.26655648	     53.70241879	     -4.69371265	      0.93728402	      3.35749679	      8.11468224	     -7.97062130	    -19.34158084	      5.57009991	     -2.16558721	     -4.77054018	    -12.56923823	      9.27753134	     34.26468529	     90.00000001	      0.00000000	      0.00000000	     -0.40648950	    -14.80189615	     -0.91662082	     46.87100944	     90.00000001	      0.00000000	      0.00000000
      0.49000000	      8.14207373	     -2.79599381	     -2.88472494	     -1.22381842	      0.95873034	      0.26404619	      8.57776858	      4.58045341	     -3.93532177	     19.26453760	      2.92111906	      0.33622961	     13.22589769	      4.90555730	     -7.95860483	    -12.63641227	     -8.26173382	    -16.86930787	     55.81283571	     -5.59562165	      0.97411775	      3.94634390	      6.65836036	     -7.95860483	    -19.35894054	      5.30364735	     -1.66658141	     -4.34560552	    -12.76922001	      9.39006902	     34.66856276	     90.00000001	      0.00000000	      0.00000000	     -0.84923115	    -14.64095608	     -0.08626435	     45.95626888	     90.00000001	      0.00000000	      0.00000000
      0.50000000	      8.21600639	     -2.50686783	     -3.06550024	     -1.20958130	      0.96263388	      0.26556770	      6.92476516	      4.26705838	     -3.85600841	     18.10701852	      3.00245104	      0.31602709	     13.61591195	      5.52151183	     -7.95107856	    -10.68157089	     -8.05663054	    -17.43437101	     57.37505618	     -6.59546064	      1.00138364	      5.00226192	      5.66315982	     -7.95107856	    -19.49264203	      4.80775315	     -1.35698953	     -3.90292917	    -12.93376955	      9.46035458	     35.07670124	     90.00000001	      0.00000000	      0.00000000	     -1.32453864	    -14.49722852	      0.49872951	     45.15133455	     90.00000001	      0.00000000	      0.00000000
      0.51000000	      8.22363027	     -2.17879304	     -3.29564449	     -1.19546393	      0.96631731	      0.26715735	      5.33650763	      3.94696702	     -3.73953655	     16.88025458	      3.00964618	      0.29461602	     13.95419656	      6.18394214	     -7.94432271	     -8.66624654	     -7.81324676	    -18.08118583	     58.56388900	     -7.49214978	      1.02213269	      6.05352845	      4.88122850	     -7.94432271	    -19.53423185	      4.24509036	     -0.98795902	     -3.47562416	    -13.10627967	      9.57424042	     35.50567142	     90.00000001	      0.00000000	      0.00000000	     -1.81253711	    -14.35518576	      1.15376345	     44.37370609	     90.00000001	      0.00000000	      0.00000000
      0.52000000	      8.16206329	     -1.81016803	     -3.56571243	     -1.18150973	      0.96974878	      0.26887501	      3.83196877	      3.57618228	     -3.64675625	     15.60865023	      3.02813033	      0.27242234	     14.22814339	      6.84820923	     -7.93795479	     -6.59793536	     -7.50789099	    -18.73501400	     59.36412114	     -8.27040595	      1.03609937	      7.15502423	      4.30017720	     -7.93795479	    -19.49120117	      3.61855167	     -0.59392264	     -3.07958809	    -13.27225568	      9.72767835	     35.96830746	     90.00000001	      0.00000000	      0.00000000	     -2.31408627	    -14.27721372	      1.81824471	     43.65408586	     90.00000001	      0.00000000	      0.00000000
      0.53000000	      8.02060171	     -1.43827312	     -3.86438440	     -1.16752397	      0.97286164	      0.27029321	      2.37253994	      3.15569823	     -3.35116990	     14.22451870	      3.13303798	      0.24826469	     14.48678289	      7.60949622	     -7.93062233	     -4.49192211	     -7.14195416	    -19.44991185	     59.75200799	     -8.98613177	      1.04286927	      8.29204143	      3.96107042	     -7.93062233	    -19.33187044	      3.04734957	     -0.22030245	     -2.70345855	    -13.53741990	      9.96089572	     36.49173141	     90.00000001	      0.00000000	      0.00000000	     -2.89639359	    -14.19256512	      2.66522749	     42.92286725	     90.00000001	      0.00000000	      0.00000000
